<svg xmlns="http://www.w3.org/2000/svg" version="1.1" xmlns:xlink="http://www.w3.org/1999/xlink" xmlns:svgjs="http://svgjs.com/svgjs" width="41" height="39"><svg width="41" height="39" viewBox="0 0 41 39" fill="none" xmlns="http://www.w3.org/2000/svg">
<path d="M12.4467 0C14.5403 0 16.5158 0.520237 18.2516 1.43895C19.8474 2.28362 21.2374 3.46522 22.3273 4.88868C22.6202 4.83024 22.9174 4.78189 23.2183 4.74398C23.7587 4.67592 24.2878 4.64065 24.8019 4.64065C27.3747 4.64065 29.7694 5.41454 31.7668 6.74276C33.6965 8.02601 35.2535 9.82912 36.2393 11.9533C37.5735 12.4524 38.7231 13.3301 39.5586 14.4562C40.4641 15.6772 41 17.1866 41 18.8182C41 20.6351 40.3366 22.2996 39.2391 23.5821C38.3088 24.6695 37.0659 25.4808 35.6499 25.8764V33.8711C35.6499 34.4246 35.202 34.8733 34.6494 34.8733H32.85C32.7094 35.9346 32.2196 36.8855 31.4999 37.6063C30.6401 38.4674 29.4522 39 28.1403 39C26.8283 39 25.6405 38.4674 24.7806 37.6062C24.0609 36.8855 23.5711 35.9346 23.4305 34.8733H18.7836C18.6431 35.9346 18.1533 36.8855 17.4336 37.6062C16.5737 38.4674 15.3858 39 14.0739 39C12.7619 39 11.5741 38.4674 10.7142 37.6062C9.99456 36.8855 9.50475 35.9346 9.36414 34.8733H7.28963C6.7369 34.8733 6.28887 34.4246 6.28887 33.8711V23.2964C4.46696 22.2555 2.93386 20.7697 1.83883 18.9876C0.672749 17.0896 0 14.8557 0 12.4653C0 9.02324 1.39323 5.90687 3.64571 3.65105C5.89809 1.3953 9.00983 0 12.4467 0ZM16.6138 10.4529C18.091 10.4529 19.2884 13.0252 19.2884 15.3495C19.2884 17.1883 18.5387 18.3204 17.4941 18.7131C17.1092 21.3839 17.7492 24.217 17.7492 26.9488C17.7492 27.3147 17.2436 27.6151 16.6177 27.6262L16.6107 27.6263C15.9847 27.6152 15.4792 27.3147 15.4792 26.9488C15.4792 24.2172 16.1192 21.3842 15.7343 18.7134C14.6893 18.321 13.9393 17.1888 13.9393 15.3495C13.9393 13.0252 15.1367 10.4529 16.6138 10.4529ZM26.8592 15.5525C27.154 15.5525 27.3165 15.3779 27.3165 15.1421V10.892C27.3165 10.6662 27.5315 10.4817 27.7958 10.4817C28.0592 10.4817 28.2749 10.6662 28.2749 10.892V15.1421L28.2746 15.1528V15.3614C28.2746 17.0111 27.685 18.0577 26.8458 18.4746C26.4267 21.1776 27.0846 24.0511 27.0846 26.8205C27.0846 27.1863 26.579 27.4867 25.9531 27.4978L25.9461 27.498C25.3202 27.4869 24.8146 27.1863 24.8146 26.8205C24.8146 24.0511 25.4724 21.1777 25.0533 18.4747C24.2142 18.0578 23.6246 17.0113 23.6246 15.3614V15.1528L23.6243 15.1421V10.892C23.6243 10.6662 23.8394 10.4817 24.1036 10.4817C24.3671 10.4817 24.5827 10.6662 24.5827 10.892V15.1421C24.5827 15.3782 24.7437 15.5525 25.0397 15.5525C25.391 15.5525 25.4661 15.3758 25.4661 15.1421V10.892C25.4661 10.6662 25.6812 10.4817 25.9455 10.4817C26.2089 10.4817 26.4245 10.6662 26.4245 10.892V15.1421C26.4245 15.3784 26.523 15.5525 26.8592 15.5525ZM32.6908 32.8689H33.6486V25.0698C33.648 24.582 34.0045 24.1541 34.5008 24.0794C35.7838 23.8823 36.9156 23.2254 37.7223 22.2823C38.5177 21.3529 38.9985 20.1428 38.9985 18.8182C38.9985 17.6268 38.611 16.5295 37.9555 15.6463C37.2832 14.7395 36.3286 14.0544 35.2216 13.7206L35.2223 13.7182C34.9468 13.6357 34.7087 13.4351 34.5883 13.149C33.7729 11.21 32.3977 9.56308 30.6645 8.41051C28.9869 7.29492 26.9715 6.64502 24.8019 6.64502C24.3256 6.64502 23.8783 6.67225 23.4607 6.72487C23.0388 6.77804 22.6231 6.8566 22.2153 6.95872C21.8036 7.09392 21.336 6.94813 21.0796 6.57188C20.1212 5.16654 18.8304 4.00728 17.3211 3.20845C15.8688 2.4397 14.2102 2.00437 12.4467 2.00437C9.56225 2.00437 6.9509 3.17529 5.06072 5.06825C3.17058 6.96125 2.00147 9.57649 2.00147 12.4653C2.00147 14.4726 2.56546 16.347 3.54315 17.9383C4.54431 19.5677 5.97609 20.9006 7.67773 21.7766C8.03765 21.9284 8.29034 22.285 8.29034 22.7007V32.8689H9.52331C9.75219 32.1069 10.1667 31.4253 10.7142 30.8769C11.5741 30.0158 12.7619 29.4832 14.0739 29.4832C15.3858 29.4832 16.5737 30.0158 17.4336 30.8769C17.9811 31.4253 18.3955 32.1069 18.6244 32.8689H23.5897C23.8187 32.1069 24.2331 31.4253 24.7806 30.8769C25.6405 30.0158 26.8283 29.4832 28.1403 29.4832C29.4522 29.4832 30.6401 30.0158 31.4999 30.8769C32.0474 31.4253 32.4619 32.1069 32.6908 32.8689ZM30.0848 32.2942C29.5873 31.7959 28.8997 31.4875 28.1403 31.4875C27.3808 31.4875 26.6932 31.7959 26.1957 32.2942C25.6982 32.7924 25.3904 33.481 25.3904 34.2417C25.3904 35.0022 25.6981 35.6908 26.1957 36.1891C26.6932 36.6874 27.3808 36.9956 28.1403 36.9956C28.8997 36.9956 29.5873 36.6874 30.0849 36.1891C30.5824 35.6908 30.8902 35.0022 30.8902 34.2417C30.8902 33.481 30.5824 32.7924 30.0848 32.2942ZM16.0185 32.2942C15.5209 31.7959 14.8334 31.4875 14.0739 31.4875C13.3144 31.4875 12.6269 31.7959 12.1293 32.2942C11.6318 32.7924 11.324 33.481 11.324 34.2417C11.324 35.0022 11.6318 35.6908 12.1293 36.1891C12.6269 36.6874 13.3144 36.9956 14.0739 36.9956C14.8334 36.9956 15.5209 36.6874 16.0185 36.1891C16.516 35.6908 16.8239 35.0022 16.8239 34.2417C16.8239 33.481 16.516 32.7924 16.0185 32.2942Z" fill="#B94A45"></path>
</svg><style>@media (prefers-color-scheme: light) { :root { filter: none; } }
</style></svg>