<svg width="344" height="358" viewBox="0 0 344 358" fill="none" xmlns="http://www.w3.org/2000/svg">
    <g filter="url(#filter0_d_0_43)">
        <path d="M52.0514 291.338H40.9978C40.9978 290.113 36.8854 283.648 28.6753 271.937C20.0831 259.613 15.1755 251.175 13.9832 246.633H13.2647C14.0137 253.177 14.3959 259.094 14.3959 264.369C14.3959 271.751 14.5948 280.742 15.0228 291.338H4C4.44336 282.071 4.67256 271.905 4.67256 260.837C4.67256 249.935 4.44336 240.656 4 233.012H17.3009C17.3009 234.601 20.9851 240.916 28.3696 251.969C36.2125 263.695 40.7225 271.661 41.8843 275.833H42.5573C41.8389 269.185 41.4869 263.206 41.4869 257.916C41.4869 249.828 41.273 241.527 40.8602 233.012H52.0514C51.6385 240.426 51.4244 249.691 51.4244 260.837C51.4244 272.059 51.6385 282.225 52.0514 291.338ZM123.574 333.904C123.574 338.961 122.117 342.919 119.214 345.749C116.31 348.582 112.891 350 108.956 350C105.283 350 102.127 348.746 99.4866 346.236C96.8459 343.728 95.5309 340.186 95.5309 335.625C95.5309 330.526 96.9877 326.549 99.9014 323.686C102.815 320.814 106.244 319.387 110.169 319.387C113.852 319.387 116.998 320.651 119.628 323.19C122.259 325.73 123.574 329.301 123.574 333.904ZM134.267 0C144.581 0 154.313 2.55914 162.864 7.07849C170.726 11.2336 177.574 17.0461 182.943 24.0484C184.387 23.7609 185.851 23.523 187.333 23.3366C189.995 23.0017 192.602 22.8282 195.135 22.8282C207.809 22.8282 219.607 26.6352 229.448 33.1689C238.954 39.4815 246.625 48.3513 251.481 58.8007C258.054 61.2556 263.718 65.5735 267.834 71.1129C272.295 77.1189 274.935 84.5442 274.935 92.5704C274.935 101.508 271.667 109.696 266.26 116.005C261.677 121.354 255.554 125.345 248.577 127.291V166.619C248.577 169.341 246.371 171.549 243.648 171.549H234.784C234.091 176.769 231.678 181.447 228.133 184.993C223.896 189.229 218.044 191.848 211.581 191.848C205.118 191.848 199.266 189.229 195.03 184.992C191.484 181.447 189.071 176.769 188.378 171.549H165.486C164.793 176.769 162.38 181.447 158.835 184.992C154.598 189.229 148.746 191.848 142.283 191.848C135.819 191.848 129.968 189.229 125.732 184.992C122.186 181.447 119.773 176.769 119.08 171.549H108.86C106.137 171.549 103.93 169.341 103.93 166.619V114.599C94.9542 109.479 87.4014 102.17 82.0067 93.4035C76.262 84.067 72.9477 73.0782 72.9477 61.3191C72.9477 44.3871 79.8114 29.057 90.9083 17.9602C102.005 6.86375 117.335 0 134.267 0ZM154.796 51.42C162.073 51.42 167.973 64.0737 167.973 75.5069C167.973 84.5525 164.279 90.1215 159.133 92.0535C157.236 105.192 160.39 119.128 160.39 132.566C160.39 134.366 157.899 135.844 154.815 135.898L154.78 135.899C151.697 135.845 149.206 134.366 149.206 132.566C149.206 119.129 152.359 105.193 150.463 92.0549C145.315 90.1244 141.62 84.5549 141.62 75.5069C141.62 64.0737 147.519 51.42 154.796 51.42ZM205.27 76.5057C206.722 76.5057 207.523 75.6469 207.523 74.4871V53.58C207.523 52.4688 208.582 51.5617 209.884 51.5617C211.182 51.5617 212.244 52.4688 212.244 53.58V74.4871L212.243 74.5394V75.5656C212.243 83.6811 209.338 88.8291 205.204 90.8799C203.139 104.176 206.38 118.312 206.38 131.935C206.38 133.735 203.89 135.212 200.806 135.267L200.771 135.268C197.688 135.213 195.197 133.735 195.197 131.935C195.197 118.312 198.438 104.177 196.373 90.8807C192.239 88.8298 189.335 83.6818 189.335 75.5656V74.5394L189.333 74.4871V53.58C189.333 52.4688 190.393 51.5617 191.695 51.5617C192.992 51.5617 194.055 52.4688 194.055 53.58V74.4871C194.055 75.6482 194.848 76.5057 196.306 76.5057C198.037 76.5057 198.407 75.6364 198.407 74.4871V53.58C198.407 52.4688 199.466 51.5617 200.768 51.5617C202.066 51.5617 203.128 52.4688 203.128 53.58V74.4871C203.128 75.6491 203.614 76.5057 205.27 76.5057ZM233.999 161.688H238.718V123.323H238.721C238.718 120.924 240.472 118.818 242.916 118.451C249.237 117.481 254.813 114.25 258.787 109.611C262.706 105.039 265.074 99.0864 265.074 92.5704C265.074 86.7096 263.165 81.3117 259.936 76.9671C256.624 72.5064 251.921 69.1362 246.467 67.494L246.471 67.4823C245.113 67.0768 243.941 66.09 243.348 64.6823C239.331 55.1439 232.556 47.0426 224.017 41.3729C215.752 35.8851 205.823 32.6881 195.135 32.6881C192.788 32.6881 190.585 32.8221 188.527 33.0809C186.449 33.3425 184.401 33.7289 182.392 34.2313C180.364 34.8964 178.06 34.1792 176.797 32.3283C172.075 25.4152 165.716 19.7126 158.28 15.783C151.126 12.0014 142.955 9.8599 134.267 9.8599C120.056 9.8599 107.191 15.6199 97.8794 24.9317C88.5676 34.2437 82.808 47.1086 82.808 61.3191C82.808 71.1933 85.5865 80.4142 90.4031 88.242C95.3353 96.2573 102.389 102.814 110.772 107.123C112.545 107.87 113.79 109.624 113.79 111.669V161.688H119.864C120.992 157.94 123.034 154.587 125.732 151.89C129.968 147.654 135.819 145.033 142.283 145.033C148.746 145.033 154.598 147.654 158.835 151.89C161.532 154.587 163.573 157.94 164.701 161.688H189.163C190.291 157.94 192.332 154.587 195.03 151.89C199.266 147.654 205.118 145.033 211.581 145.033C218.045 145.033 223.896 147.654 228.132 151.89C230.83 154.587 232.872 157.94 233.999 161.688ZM221.161 158.861C218.71 156.41 215.323 154.893 211.581 154.893C207.839 154.893 204.452 156.41 202.001 158.861C199.55 161.312 198.034 164.699 198.034 168.441C198.034 172.183 199.55 175.57 202.001 178.021C204.452 180.472 207.839 181.989 211.581 181.989C215.323 181.989 218.71 180.472 221.161 178.021C223.612 175.57 225.129 172.183 225.129 168.441C225.129 164.699 223.612 161.312 221.161 158.861ZM151.863 158.861C149.412 156.41 146.025 154.893 142.283 154.893C138.541 154.893 135.154 156.41 132.703 158.861C130.252 161.312 128.735 164.699 128.735 168.441C128.735 172.183 130.252 175.57 132.703 178.021C135.154 180.472 138.541 181.989 142.283 181.989C146.025 181.989 149.412 180.472 151.863 178.021C154.314 175.57 155.831 172.183 155.831 168.441C155.831 164.699 154.314 161.312 151.863 158.861ZM118.445 334.945C118.445 331.86 117.666 329.118 116.118 326.722C114.56 324.324 112.355 323.119 109.492 323.119C106.649 323.119 104.453 324.254 102.926 326.529C101.399 328.805 100.63 331.435 100.63 334.439C100.63 337.546 101.409 340.289 102.956 342.684C104.504 345.072 106.73 346.267 109.613 346.267C112.456 346.267 114.641 345.124 116.159 342.848C117.686 340.56 118.445 337.93 118.445 334.945ZM155.522 348.846H150.13C150.565 343.647 150.777 337.981 150.777 331.831C150.777 328.795 150.16 326.71 148.926 325.598C147.692 324.476 145.931 323.919 143.635 323.919C140.833 323.919 138.243 324.94 135.875 326.974C135.875 333.711 135.916 341.005 135.997 348.846H130.595C130.939 342.129 131.101 337.262 131.101 334.268C131.101 329.646 130.666 325.153 129.796 320.802L135.016 320.064L135.582 323.686H135.815C138.739 321.037 141.875 319.71 145.213 319.71C148.491 319.71 151.03 320.438 152.831 321.885C154.621 323.342 155.522 325.923 155.522 329.646C155.522 330.02 155.502 330.758 155.461 331.86C155.421 332.973 155.4 333.711 155.4 334.087C155.4 337.385 155.441 342.3 155.522 348.846ZM169.007 348.846H163.322C163.676 342.32 163.848 334.955 163.848 326.732C163.848 318.749 163.564 312.225 162.988 307.146L169.007 306.852C168.633 312.225 168.451 318.852 168.451 326.732C168.451 334.855 168.633 342.229 169.007 348.846ZM182.553 348.846H177.191C177.465 344.891 177.606 340.379 177.606 335.3C177.606 329.594 177.262 324.799 176.564 320.924L182.492 320.125C182.26 324.254 182.138 329.311 182.138 335.3C182.138 340.044 182.28 344.556 182.553 348.846ZM183.798 311.8C183.798 312.802 183.474 313.682 182.816 314.42C182.169 315.158 181.248 315.532 180.064 315.532C179.053 315.532 178.274 315.209 177.707 314.572C177.141 313.924 176.858 313.156 176.858 312.244C176.858 311.252 177.202 310.394 177.869 309.666C178.537 308.937 179.468 308.573 180.651 308.573C181.623 308.573 182.391 308.886 182.958 309.534C183.514 310.172 183.798 310.929 183.798 311.8ZM215.513 348.846H210.121C210.556 343.647 210.768 337.981 210.768 331.831C210.768 328.795 210.151 326.71 208.917 325.598C207.683 324.476 205.922 323.919 203.626 323.919C200.824 323.919 198.234 324.94 195.867 326.974C195.867 333.711 195.907 341.005 195.988 348.846H190.585C190.93 342.129 191.092 337.262 191.092 334.268C191.092 329.646 190.657 325.153 189.787 320.802L195.007 320.064L195.573 323.686H195.806C198.73 321.037 201.866 319.71 205.204 319.71C208.482 319.71 211.021 320.438 212.822 321.885C214.612 323.342 215.513 325.923 215.513 329.646C215.513 330.02 215.493 330.758 215.452 331.86C215.412 332.973 215.391 333.711 215.391 334.087C215.391 337.385 215.432 342.3 215.513 348.846ZM247.582 331.445C247.582 332.276 247.542 333.43 247.461 334.887L227.106 335.239C227.299 338.123 228.421 340.54 230.455 342.493C232.488 344.434 235.179 345.407 238.548 345.407C241.542 345.407 244.365 345.043 246.985 344.314L246.49 348.492C244.547 349.262 241.755 349.646 238.103 349.646C232.964 349.646 229.049 348.24 226.348 345.436C223.646 342.635 222.301 339.215 222.301 335.18C222.301 330.88 223.535 327.167 225.993 324.051C228.452 320.944 231.76 319.387 235.908 319.387C239.722 319.387 242.615 320.509 244.608 322.765C246.591 325.011 247.582 327.915 247.582 331.445ZM242.635 331.506C242.635 325.952 240.308 323.181 235.665 323.181C230.93 323.181 228.128 326.065 227.278 331.831L242.635 331.506ZM115.788 291.338H101.464C101.464 289.365 100.103 283.785 97.3815 274.582H76.6961C73.8829 283.631 72.4767 289.211 72.4767 291.338H58.9921C58.9921 290.174 62.478 280.619 69.4493 262.671C76.4211 244.722 79.9068 234.846 79.9068 233.012H96.8462C96.8462 234.724 99.9957 244.462 106.31 262.243C112.639 280.023 115.788 289.717 115.788 291.338ZM95.1033 266.034C89.9971 250.625 87.444 242.292 87.444 241.038H86.7256C86.7256 242.2 84.0805 250.532 78.7904 266.034H95.1033ZM176.743 261.096C176.743 270.27 173.945 277.867 168.319 283.907C162.709 289.93 155.768 292.941 147.497 292.941C139.608 292.941 133.018 290.174 127.698 284.64C122.378 279.106 119.733 272.059 119.733 263.526C119.733 254.355 122.531 246.755 128.141 240.717C133.768 234.693 140.708 231.682 148.98 231.682C156.853 231.682 163.458 234.434 168.778 239.968C174.083 245.487 176.743 252.534 176.743 261.096ZM164.39 262.397C164.39 256.159 162.785 251.099 159.59 247.215C156.395 243.331 152.45 241.39 147.772 241.39C143.399 241.39 139.699 243.347 136.657 247.261C133.615 251.175 132.086 256.112 132.086 262.091C132.086 268.297 133.691 273.357 136.902 277.256C140.112 281.14 144.042 283.096 148.704 283.096C153.061 283.096 156.761 281.14 159.819 277.21C162.861 273.281 164.39 268.344 164.39 262.397ZM231.568 273.785C231.568 285.665 221.859 291.612 202.412 291.612C199.034 291.612 193.79 291.521 186.65 291.338C187.032 282.316 187.231 272.15 187.231 260.837C187.231 249.967 187.032 240.686 186.65 233.012H193.912C195.273 233.012 197.581 232.981 200.822 232.889C204.063 232.798 206.601 232.752 208.421 232.752C221.645 232.752 228.265 237.048 228.265 245.655C228.265 252.275 224.871 256.662 218.098 258.818V259.49C221.706 260.057 224.856 261.463 227.547 263.726C230.222 265.973 231.568 269.336 231.568 273.785ZM219.474 274.274C219.474 268.327 214.276 265.362 203.85 265.362C201.786 265.362 200.012 265.438 198.514 265.577C198.514 271.829 198.652 277.576 198.927 282.822C199.936 283.066 201.464 283.188 203.483 283.188C209.017 283.188 213.053 282.516 215.622 281.186C218.19 279.854 219.474 277.561 219.474 274.274ZM216.203 249.187C216.203 243.851 212.87 241.176 206.173 241.176C203.101 241.176 200.364 241.39 197.979 241.848C198.315 244.861 198.468 250.043 198.468 257.381C199.614 257.442 200.807 257.474 202.061 257.474C211.494 257.474 216.203 254.707 216.203 249.187ZM279.956 281.475L279.589 291.338H241.475C241.857 282.316 242.055 272.15 242.055 260.837C242.055 249.967 241.857 240.686 241.475 233.012H277.846L277.357 242.827C268.396 242.353 260.264 242.108 252.987 242.108C253.278 246.266 253.429 251.16 253.429 256.802C259.667 256.802 266.348 256.633 273.458 256.31V265.667C266.47 265.376 259.79 265.225 253.429 265.225C253.429 271.28 253.552 276.965 253.796 282.24C261.975 282.24 270.691 281.996 279.956 281.475ZM339.121 260.165C339.121 268.649 336.401 276.048 330.957 282.377C325.531 288.708 317.916 291.873 308.117 291.873C303.698 291.873 297.614 291.687 289.848 291.338C290.229 282.316 290.427 272.15 290.427 260.837C290.427 249.967 290.229 240.686 289.848 233.012H297.689C298.973 233.012 300.884 232.981 303.424 232.889C305.961 232.798 307.611 232.752 308.391 232.752C319.17 232.752 326.983 235.443 331.83 240.809C336.689 246.191 339.121 252.641 339.121 260.165ZM326.89 262.091C326.89 256.357 325.208 251.527 321.876 247.596C318.527 243.668 313.421 241.711 306.557 241.711C305.272 241.711 303.5 241.848 301.268 242.108C301.556 248.085 301.71 254.323 301.71 260.837C301.71 267.977 301.864 275.056 302.17 282.071C304.111 282.455 306.037 282.653 307.978 282.653C314.399 282.653 319.156 280.651 322.258 276.674C325.347 272.685 326.89 267.823 326.89 262.091Z" fill="#B94A45"/>
    </g>
    <defs>
        <filter id="filter0_d_0_43" x="0" y="0" width="343.121" height="358" filterUnits="userSpaceOnUse" color-interpolation-filters="sRGB">
            <feFlood flood-opacity="0" result="BackgroundImageFix"/>
            <feColorMatrix in="SourceAlpha" type="matrix" values="0 0 0 0 0 0 0 0 0 0 0 0 0 0 0 0 0 0 127 0" result="hardAlpha"/>
            <feOffset dy="4"/>
            <feGaussianBlur stdDeviation="2"/>
            <feComposite in2="hardAlpha" operator="out"/>
            <feColorMatrix type="matrix" values="0 0 0 0 0.686275 0 0 0 0 0.172549 0 0 0 0 0.196078 0 0 0 0.25 0"/>
            <feBlend mode="normal" in2="BackgroundImageFix" result="effect1_dropShadow_0_43"/>
            <feBlend mode="normal" in="SourceGraphic" in2="effect1_dropShadow_0_43" result="shape"/>
        </filter>
    </defs>
</svg>
