<svg width="56" height="58" viewBox="0 0 56 58" fill="none" xmlns="http://www.w3.org/2000/svg">
    <g filter="url(#filter0_d_0_51)">
        <path d="M10.8645 41.6197H9.2854C9.2854 41.4448 8.69791 40.5211 7.52504 38.8481C6.29759 37.0875 5.59651 35.8821 5.42617 35.2333H5.32353C5.43053 36.1681 5.48513 37.0135 5.48513 37.767C5.48513 38.8216 5.51354 40.1059 5.57469 41.6197H4C4.06334 40.2959 4.09608 38.8436 4.09608 37.2625C4.09608 35.7051 4.06334 34.3794 4 33.2874H5.90012C5.90012 33.5145 6.42645 34.4165 7.48137 35.9956C8.60178 37.6707 9.24608 38.8087 9.41205 39.4048H9.50818C9.40555 38.455 9.35527 37.6008 9.35527 36.8452C9.35527 35.6897 9.32472 34.5039 9.26574 33.2874H10.8645C10.8055 34.3466 10.7749 35.6701 10.7749 37.2625C10.7749 38.8656 10.8055 40.3179 10.8645 41.6197ZM21.082 47.7006C21.082 48.423 20.8739 48.9884 20.4591 49.3927C20.0443 49.7975 19.5558 50 18.9936 50C18.469 50 18.0181 49.8209 17.6409 49.4622C17.2637 49.104 17.0758 48.598 17.0758 47.9464C17.0758 47.218 17.284 46.6498 17.7002 46.2409C18.1164 45.8306 18.6063 45.6267 19.1671 45.6267C19.6931 45.6267 20.1426 45.8072 20.5183 46.17C20.8941 46.5329 21.082 47.043 21.082 47.7006ZM22.6095 0C24.0829 0 25.4733 0.365592 26.6949 1.01121C27.818 1.6048 28.7963 2.43515 29.5634 3.43548C29.7695 3.39441 29.9787 3.36043 30.1904 3.33379C30.5708 3.28596 30.9431 3.26118 31.305 3.26118C33.1156 3.26118 34.801 3.80502 36.2068 4.73842C37.5649 5.64021 38.6607 6.90733 39.3545 8.4001C40.2934 8.75079 41.1025 9.36765 41.6906 10.159C42.3278 11.017 42.705 12.0777 42.705 13.2243C42.705 14.5012 42.2381 15.6708 41.4657 16.5721C40.811 17.3363 39.9362 17.9064 38.9396 18.1844V23.8026C38.9396 24.1916 38.6244 24.5069 38.2355 24.5069H36.9691C36.8702 25.2527 36.5254 25.921 36.0189 26.4275C35.4138 27.0327 34.5778 27.4069 33.6545 27.4069C32.7311 27.4069 31.8951 27.0327 31.2899 26.4275C30.7835 25.921 30.4387 25.2527 30.3398 24.5069H27.0694C26.9704 25.2527 26.6257 25.921 26.1192 26.4275C25.5141 27.0327 24.678 27.4069 23.7547 27.4069C22.8314 27.4069 21.9954 27.0327 21.3902 26.4275C20.8837 25.921 20.539 25.2527 20.44 24.5069H18.98C18.591 24.5069 18.2757 24.1916 18.2757 23.8026V16.3713C16.9935 15.6399 15.9145 14.5957 15.1438 13.3434C14.3231 12.0096 13.8497 10.4397 13.8497 8.75987C13.8497 6.34101 14.8302 4.15101 16.4155 2.56574C18.0007 0.980536 20.1907 0 22.6095 0ZM25.5423 7.34571C26.5819 7.34571 27.4246 9.15338 27.4246 10.7867C27.4246 12.0789 26.897 12.8745 26.1618 13.1505C25.8909 15.0274 26.3414 17.0183 26.3414 18.9381C26.3414 19.1952 25.9855 19.4063 25.545 19.4141L25.54 19.4142C25.0995 19.4064 24.7437 19.1952 24.7437 18.9381C24.7437 17.0184 25.1941 15.0275 24.9233 13.1507C24.1878 12.8749 23.66 12.0793 23.66 10.7867C23.66 9.15338 24.5027 7.34571 25.5423 7.34571ZM32.7528 10.9294C32.9603 10.9294 33.0747 10.8067 33.0747 10.641V7.65429C33.0747 7.49555 33.226 7.36596 33.412 7.36596C33.5974 7.36596 33.7492 7.49555 33.7492 7.65429V10.641L33.749 10.6485V10.7951C33.749 11.9544 33.334 12.6899 32.7435 12.9828C32.4485 14.8824 32.9115 16.9017 32.9115 18.8479C32.9115 19.1049 32.5557 19.3161 32.1152 19.3239L32.1102 19.324C31.6697 19.3162 31.3139 19.1049 31.3139 18.8479C31.3139 16.9017 31.7768 14.8825 31.4819 12.983C30.8913 12.69 30.4764 11.9545 30.4764 10.7951V10.6485L30.4762 10.641V7.65429C30.4762 7.49555 30.6276 7.36596 30.8135 7.36596C30.9989 7.36596 31.1507 7.49555 31.1507 7.65429V10.641C31.1507 10.8069 31.264 10.9294 31.4723 10.9294C31.7196 10.9294 31.7724 10.8052 31.7724 10.641V7.65429C31.7724 7.49555 31.9238 7.36596 32.1098 7.36596C32.2952 7.36596 32.4469 7.49555 32.4469 7.65429V10.641C32.4469 10.807 32.5163 10.9294 32.7528 10.9294ZM36.8571 23.0983H37.5312V17.6176H37.5316C37.5312 17.2748 37.7817 16.9741 38.1309 16.9216C39.0339 16.7831 39.8304 16.3215 40.3982 15.6587C40.958 15.0056 41.2963 14.1552 41.2963 13.2243C41.2963 12.3871 41.0236 11.616 40.5623 10.9953C40.0892 10.3581 39.4173 9.87659 38.6382 9.64201L38.6387 9.64033C38.4448 9.5824 38.2772 9.44143 38.1925 9.24033C37.6187 7.8777 36.6508 6.72037 35.431 5.91042C34.2503 5.12644 32.8319 4.66973 31.305 4.66973C30.9697 4.66973 30.6549 4.68887 30.361 4.72585C30.0641 4.76321 29.7715 4.81842 29.4845 4.89018C29.1948 4.98519 28.8657 4.88274 28.6852 4.61833C28.0107 3.63074 27.1023 2.81608 26.0401 2.25471C25.0179 1.71448 23.8507 1.40856 22.6095 1.40856C20.5795 1.40856 18.7416 2.23141 17.4113 3.56167C16.0811 4.89196 15.2583 6.7298 15.2583 8.75987C15.2583 10.1705 15.6552 11.4877 16.3433 12.606C17.0479 13.751 18.0556 14.6877 19.2532 15.3033C19.5065 15.41 19.6843 15.6606 19.6843 15.9527V23.0983H20.5521C20.7131 22.5629 21.0049 22.0839 21.3902 21.6985C21.9954 21.0934 22.8314 20.7191 23.7547 20.7191C24.678 20.7191 25.514 21.0934 26.1192 21.6985C26.5046 22.0839 26.7962 22.5629 26.9573 23.0983H30.4518C30.613 22.5629 30.9046 22.0839 31.2899 21.6985C31.8951 21.0934 32.7311 20.7191 33.6545 20.7191C34.5778 20.7191 35.4138 21.0934 36.0189 21.6985C36.4042 22.0839 36.696 22.5629 36.8571 23.0983ZM35.023 22.6944C34.6728 22.3443 34.1889 22.1276 33.6545 22.1276C33.1199 22.1276 32.636 22.3443 32.2859 22.6944C31.9357 23.0446 31.7191 23.5285 31.7191 24.063C31.7191 24.5975 31.9357 25.0814 32.2859 25.4316C32.636 25.7817 33.1199 25.9984 33.6545 25.9984C34.1889 25.9984 34.6729 25.7818 35.023 25.4316C35.3732 25.0814 35.5898 24.5975 35.5898 24.063C35.5898 23.5285 35.3732 23.0446 35.023 22.6944ZM25.1233 22.6944C24.7731 22.3443 24.2892 22.1276 23.7547 22.1276C23.2202 22.1276 22.7363 22.3443 22.3861 22.6944C22.036 23.0446 21.8194 23.5285 21.8194 24.063C21.8194 24.5975 22.036 25.0814 22.3861 25.4316C22.7363 25.7817 23.2202 25.9984 23.7547 25.9984C24.2892 25.9984 24.7731 25.7817 25.1233 25.4316C25.4735 25.0814 25.6901 24.5975 25.6901 24.063C25.6901 23.5285 25.4734 23.0446 25.1233 22.6944ZM20.3493 47.8493C20.3493 47.4086 20.238 47.0168 20.0169 46.6746C19.7943 46.3321 19.4792 46.1599 19.0702 46.1599C18.6641 46.1599 18.3505 46.3219 18.1323 46.647C17.9141 46.9721 17.8042 47.3479 17.8042 47.777C17.8042 48.2209 17.9155 48.6127 18.1366 48.9549C18.3577 49.296 18.6757 49.4668 19.0876 49.4668C19.4937 49.4668 19.8059 49.3034 20.0226 48.9783C20.2409 48.6514 20.3493 48.2757 20.3493 47.8493ZM25.646 49.8352H24.8757C24.9378 49.0924 24.9682 48.283 24.9682 47.4044C24.9682 46.9707 24.88 46.6729 24.7037 46.514C24.5274 46.3537 24.2759 46.2741 23.9478 46.2741C23.5475 46.2741 23.1775 46.4201 22.8393 46.7106C22.8393 47.673 22.8451 48.715 22.8567 49.8352H22.085C22.1341 48.8756 22.1572 48.1804 22.1572 47.7526C22.1572 47.0923 22.0951 46.4504 21.9708 45.8289L22.7165 45.7234L22.7974 46.2409H22.8307C23.2484 45.8624 23.6964 45.6728 24.1733 45.6728C24.6415 45.6728 25.0043 45.7768 25.2616 45.9836C25.5173 46.1917 25.646 46.5604 25.646 47.0923C25.646 47.1457 25.6431 47.2511 25.6373 47.4086C25.6315 47.5675 25.6286 47.673 25.6286 47.7267C25.6286 48.1978 25.6344 48.9 25.646 49.8352ZM27.5725 49.8352H26.7602C26.8108 48.9028 26.8354 47.8507 26.8354 46.676C26.8354 45.5356 26.7949 44.6036 26.7125 43.8779L27.5725 43.836C27.519 44.6036 27.4929 45.5502 27.4929 46.676C27.4929 47.8364 27.519 48.8899 27.5725 49.8352ZM29.5076 49.8352H28.7416C28.7807 49.2702 28.8009 48.6256 28.8009 47.8999C28.8009 47.0849 28.7518 46.3998 28.6521 45.8463L29.4989 45.7322C29.4657 46.3219 29.4483 47.0444 29.4483 47.8999C29.4483 48.5777 29.4686 49.2223 29.5076 49.8352ZM29.6854 44.5428C29.6854 44.686 29.6391 44.8117 29.5452 44.9171C29.4527 45.0226 29.3212 45.076 29.1521 45.076C29.0075 45.076 28.8963 45.0299 28.8153 44.9388C28.7344 44.8462 28.6939 44.7366 28.6939 44.6064C28.6939 44.4646 28.7431 44.342 28.8385 44.238C28.9339 44.1339 29.0668 44.0819 29.2359 44.0819C29.3746 44.0819 29.4845 44.1266 29.5654 44.2191C29.6449 44.3102 29.6854 44.4185 29.6854 44.5428ZM34.2162 49.8352H33.4458C33.508 49.0924 33.5383 48.283 33.5383 47.4044C33.5383 46.9707 33.4502 46.6729 33.2738 46.514C33.0975 46.3537 32.8461 46.2741 32.518 46.2741C32.1177 46.2741 31.7477 46.4201 31.4095 46.7106C31.4095 47.673 31.4153 48.715 31.4269 49.8352H30.6551C30.7042 48.8756 30.7274 48.1804 30.7274 47.7526C30.7274 47.0923 30.6652 46.4504 30.541 45.8289L31.2867 45.7234L31.3676 46.2409H31.4008C31.8185 45.8624 32.2665 45.6728 32.7435 45.6728C33.2117 45.6728 33.5744 45.7768 33.8317 45.9836C34.0875 46.1917 34.2162 46.5604 34.2162 47.0923C34.2162 47.1457 34.2133 47.2511 34.2074 47.4086C34.2017 47.5675 34.1988 47.673 34.1988 47.7267C34.1988 48.1978 34.2046 48.9 34.2162 49.8352ZM38.7975 47.3493C38.7975 47.468 38.7917 47.6328 38.7801 47.8409L35.8723 47.8912C35.8998 48.3033 36.0602 48.6486 36.3507 48.9276C36.6412 49.2049 37.0256 49.3439 37.5069 49.3439C37.9346 49.3439 38.3379 49.2918 38.7122 49.1878L38.6414 49.7845C38.3639 49.8945 37.965 49.9494 37.4433 49.9494C36.7091 49.9494 36.1498 49.7486 35.764 49.3481C35.3781 48.9479 35.1859 48.4594 35.1859 47.8828C35.1859 47.2686 35.3622 46.7382 35.7134 46.293C36.0645 45.8491 36.5371 45.6267 37.1297 45.6267C37.6745 45.6267 38.0878 45.787 38.3726 46.1093C38.6558 46.4302 38.7975 46.845 38.7975 47.3493ZM38.0907 47.358C38.0907 46.5646 37.7583 46.1686 37.095 46.1686C36.4186 46.1686 36.0183 46.5807 35.8969 47.4044L38.0907 47.358ZM19.9698 41.6197H17.9234C17.9234 41.3379 17.729 40.5407 17.3402 39.226H14.3852C13.9833 40.5187 13.7824 41.3159 13.7824 41.6197H11.856C11.856 41.4535 12.354 40.0885 13.3499 37.5244C14.3459 34.9602 14.8438 33.5495 14.8438 33.2874H17.2637C17.2637 33.532 17.7137 34.9232 18.6157 37.4632C19.5199 40.0033 19.9698 41.3882 19.9698 41.6197ZM17.0148 38.0048C16.2853 35.8035 15.9206 34.6131 15.9206 34.434H15.8179C15.8179 34.6 15.4401 35.7903 14.6843 38.0048H17.0148ZM28.6776 37.2995C28.6776 38.61 28.2779 39.6953 27.4742 40.5581C26.6727 41.4186 25.6811 41.8488 24.4995 41.8488C23.3726 41.8488 22.4312 41.4535 21.6712 40.6629C20.9111 39.8723 20.5333 38.8656 20.5333 37.6466C20.5333 36.3364 20.933 35.2508 21.7345 34.3881C22.5382 33.5276 23.5298 33.0974 24.7114 33.0974C25.8362 33.0974 26.7797 33.4905 27.5397 34.2811C28.2976 35.0695 28.6776 36.0763 28.6776 37.2995ZM26.9129 37.4852C26.9129 36.5941 26.6836 35.8713 26.2271 35.3164C25.7707 34.7616 25.2072 34.4842 24.5388 34.4842C23.9142 34.4842 23.3856 34.7638 22.951 35.323C22.5164 35.8821 22.298 36.5875 22.298 37.4416C22.298 38.3282 22.5273 39.051 22.986 39.608C23.4446 40.1629 24.0059 40.4422 24.6721 40.4422C25.2945 40.4422 25.8231 40.1629 26.2598 39.6014C26.6945 39.0402 26.9129 38.3348 26.9129 37.4852ZM36.5097 39.1121C36.5097 40.8092 35.1227 41.6588 32.3446 41.6588C31.862 41.6588 31.1128 41.6459 30.0929 41.6197C30.1475 40.3308 30.1758 38.8785 30.1758 37.2625C30.1758 35.7096 30.1475 34.3838 30.0929 33.2874H31.1303C31.3247 33.2874 31.6545 33.283 32.1175 33.2699C32.5805 33.2568 32.9431 33.2503 33.203 33.2503C35.0922 33.2503 36.0379 33.864 36.0379 35.0936C36.0379 36.0392 35.553 36.666 34.5855 36.974V37.0701C35.1009 37.1511 35.5508 37.3519 35.9352 37.6752C36.3175 37.9961 36.5097 38.4766 36.5097 39.1121ZM34.7821 39.182C34.7821 38.3324 34.0394 37.9088 32.5499 37.9088C32.2551 37.9088 32.0017 37.9196 31.7877 37.9395C31.7877 38.8328 31.8074 39.6537 31.8467 40.4031C31.9908 40.438 32.2092 40.4555 32.4975 40.4555C33.2881 40.4555 33.8647 40.3595 34.2317 40.1695C34.5986 39.9792 34.7821 39.6516 34.7821 39.182ZM34.3147 35.5982C34.3147 34.8359 33.8385 34.4537 32.8819 34.4537C32.4429 34.4537 32.052 34.4842 31.7112 34.5497C31.7593 34.9801 31.7812 35.7204 31.7812 36.7687C31.9449 36.7774 32.1153 36.782 32.2944 36.782C33.642 36.782 34.3147 36.3867 34.3147 35.5982ZM43.4222 40.2107L43.3698 41.6197H37.9249C37.9795 40.3308 38.0079 38.8785 38.0079 37.2625C38.0079 35.7096 37.9795 34.3838 37.9249 33.2874H43.1209L43.051 34.6895C41.7709 34.6218 40.6091 34.5869 39.5696 34.5869C39.6111 35.1809 39.6328 35.88 39.6328 36.6859C40.5239 36.6859 41.4783 36.6618 42.4941 36.6158V37.9525C41.4957 37.9109 40.5414 37.8893 39.6328 37.8893C39.6328 38.7542 39.6502 39.5664 39.6852 40.32C40.8536 40.32 42.0988 40.2851 43.4222 40.2107ZM51.8745 37.1664C51.8745 38.3785 51.4858 39.4355 50.7081 40.3396C49.9329 41.244 48.8452 41.6962 47.4453 41.6962C46.8139 41.6962 45.9448 41.6696 44.8354 41.6197C44.8899 40.3308 44.9182 38.8785 44.9182 37.2625C44.9182 35.7096 44.8899 34.3838 44.8354 33.2874H45.9556C46.139 33.2874 46.412 33.283 46.7748 33.2699C47.1373 33.2568 47.373 33.2503 47.4844 33.2503C49.0243 33.2503 50.1404 33.6347 50.8328 34.4012C51.527 35.1701 51.8745 36.0916 51.8745 37.1664ZM50.1271 37.4416C50.1271 36.6224 49.8868 35.9324 49.4109 35.3709C48.9325 34.8097 48.203 34.5301 47.2225 34.5301C47.0388 34.5301 46.7857 34.5497 46.4668 34.5869C46.508 35.4407 46.53 36.3319 46.53 37.2625C46.53 38.2825 46.552 39.2937 46.5957 40.2959C46.873 40.3507 47.1481 40.379 47.4254 40.379C48.3427 40.379 49.0222 40.093 49.4654 39.5249C49.9067 38.955 50.1271 38.2605 50.1271 37.4416Z" fill="#B94A45"/>
    </g>
    <defs>
        <filter id="filter0_d_0_51" x="0" y="0" width="55.8745" height="58" filterUnits="userSpaceOnUse" color-interpolation-filters="sRGB">
            <feFlood flood-opacity="0" result="BackgroundImageFix"/>
            <feColorMatrix in="SourceAlpha" type="matrix" values="0 0 0 0 0 0 0 0 0 0 0 0 0 0 0 0 0 0 127 0" result="hardAlpha"/>
            <feOffset dy="4"/>
            <feGaussianBlur stdDeviation="2"/>
            <feComposite in2="hardAlpha" operator="out"/>
            <feColorMatrix type="matrix" values="0 0 0 0 0.686275 0 0 0 0 0.172549 0 0 0 0 0.196078 0 0 0 0.25 0"/>
            <feBlend mode="normal" in2="BackgroundImageFix" result="effect1_dropShadow_0_51"/>
            <feBlend mode="normal" in="SourceGraphic" in2="effect1_dropShadow_0_51" result="shape"/>
        </filter>
    </defs>
</svg>
